<svg width="20" height="22" viewBox="0 0 20 22" fill="none" xmlns="http://www.w3.org/2000/svg">
<g clip-path="url(#clip0_1424_493)">
<path d="M6.60714 12.375H4.82143C4.52679 12.375 4.28571 12.143 4.28571 11.8594V10.1406C4.28571 9.85703 4.52679 9.625 4.82143 9.625H6.60714C6.90179 9.625 7.14286 9.85703 7.14286 10.1406V11.8594C7.14286 12.143 6.90179 12.375 6.60714 12.375ZM11.4286 11.8594V10.1406C11.4286 9.85703 11.1875 9.625 10.8929 9.625H9.10714C8.8125 9.625 8.57143 9.85703 8.57143 10.1406V11.8594C8.57143 12.143 8.8125 12.375 9.10714 12.375H10.8929C11.1875 12.375 11.4286 12.143 11.4286 11.8594ZM15.7143 11.8594V10.1406C15.7143 9.85703 15.4732 9.625 15.1786 9.625H13.3929C13.0982 9.625 12.8571 9.85703 12.8571 10.1406V11.8594C12.8571 12.143 13.0982 12.375 13.3929 12.375H15.1786C15.4732 12.375 15.7143 12.143 15.7143 11.8594ZM11.4286 15.9844V14.2656C11.4286 13.982 11.1875 13.75 10.8929 13.75H9.10714C8.8125 13.75 8.57143 13.982 8.57143 14.2656V15.9844C8.57143 16.268 8.8125 16.5 9.10714 16.5H10.8929C11.1875 16.5 11.4286 16.268 11.4286 15.9844ZM7.14286 15.9844V14.2656C7.14286 13.982 6.90179 13.75 6.60714 13.75H4.82143C4.52679 13.75 4.28571 13.982 4.28571 14.2656V15.9844C4.28571 16.268 4.52679 16.5 4.82143 16.5H6.60714C6.90179 16.5 7.14286 16.268 7.14286 15.9844ZM15.7143 15.9844V14.2656C15.7143 13.982 15.4732 13.75 15.1786 13.75H13.3929C13.0982 13.75 12.8571 13.982 12.8571 14.2656V15.9844C12.8571 16.268 13.0982 16.5 13.3929 16.5H15.1786C15.4732 16.5 15.7143 16.268 15.7143 15.9844ZM20 4.8125V19.9375C20 21.0762 19.0402 22 17.8571 22H2.14286C0.959821 22 0 21.0762 0 19.9375V4.8125C0 3.67383 0.959821 2.75 2.14286 2.75H4.28571V0.515625C4.28571 0.232031 4.52679 0 4.82143 0H6.60714C6.90179 0 7.14286 0.232031 7.14286 0.515625V2.75H12.8571V0.515625C12.8571 0.232031 13.0982 0 13.3929 0H15.1786C15.4732 0 15.7143 0.232031 15.7143 0.515625V2.75H17.8571C19.0402 2.75 20 3.67383 20 4.8125ZM17.8571 19.6797V6.875H2.14286V19.6797C2.14286 19.8215 2.26339 19.9375 2.41071 19.9375H17.5893C17.7366 19.9375 17.8571 19.8215 17.8571 19.6797Z" fill="#312E5F"/>
</g>
<defs>
<clipPath id="clip0_1424_493">
<rect width="20" height="22" fill="white"/>
</clipPath>
</defs>
</svg>
